<mxfile host="drawio-plugin" modified="2024-07-19T19:43:07.705Z" agent="Mozilla/5.0 (Macintosh; Intel Mac OS X 10_15_7) AppleWebKit/537.36 (KHTML, like Gecko) Chrome/122.0.0.0 Safari/537.36" etag="hpUIY7u7f2-Hv6sI-38V" version="22.1.22" type="embed">
  <diagram id="69nXhCMtZoiXK2Dm0WQ1" name="Parking Lot - Class Diagram">
    <mxGraphModel dx="906" dy="777" grid="1" gridSize="10" guides="1" tooltips="1" connect="1" arrows="1" fold="1" page="1" pageScale="1" pageWidth="827" pageHeight="1169" background="#925454" math="0" shadow="0">
      <root>
        <mxCell id="0" />
        <mxCell id="1" parent="0" />
        <mxCell id="xy7MtwKxT0VkMzhvmd6g-1" value="Parking Lot System" style="text;strokeColor=none;fillColor=none;html=1;fontSize=24;fontStyle=1;verticalAlign=middle;align=center;" parent="1" vertex="1">
          <mxGeometry x="70" y="30" width="670" height="40" as="geometry" />
        </mxCell>
        <mxCell id="xy7MtwKxT0VkMzhvmd6g-4" value="&lt;span style=&quot;caret-color: rgb(255, 255, 255); font-size: 17px; letter-spacing: 0.162px;&quot;&gt;1) The parking lot has multiple levels. Each level has multiple rows of spots.&lt;br&gt;2) The parking lot can park motorcycles, cars, and buses. &lt;br&gt;3) The parking lot has motorcycle spots, compact spots, and large spots.&lt;br&gt;4) A motorcycle can park in any spot. &lt;br&gt;5) A car can park in either a single compact spot or a single large spot. &lt;br&gt;6) A bus can park in five large spots that are consecutive and within the same row. It cannot park in small spots. In the below implementation, we have created an abstract class Vehicle, from which Car, Bus, and Motorcycle inherit. To handle the different parking spot sizes, we have just one class ParkingSpot which has a member variable indicating the size.&amp;nbsp;&lt;/span&gt;" style="rounded=1;html=1;labelBackgroundColor=#FFFFFF;labelBorderColor=none;fontFamily=Verdana;align=left;opacity=90;sketch=1;curveFitting=1;jiggle=2;glass=0;whiteSpace=wrap;" parent="1" vertex="1">
          <mxGeometry x="100" y="140" width="650" height="370" as="geometry" />
        </mxCell>
        <mxCell id="xy7MtwKxT0VkMzhvmd6g-5" value="&lt;b&gt;Requirement Collection&lt;br&gt;&lt;/b&gt;Big parking lots 10k - 30k&lt;b&gt;&lt;br&gt;&lt;/b&gt;&lt;div style=&quot;text-align: left;&quot;&gt;&lt;ol&gt;&lt;li&gt;4 - Entrances and 4 - Exits&lt;br&gt;&lt;/li&gt;&lt;li&gt;spot should be nearest to the customer from however&amp;nbsp;&lt;/li&gt;&lt;li&gt;Limit - Capacity&lt;/li&gt;&lt;li&gt;Different Types of Parking Spots&lt;/li&gt;&lt;ol&gt;&lt;li&gt;Handicapped&lt;/li&gt;&lt;li&gt;Compact Vehical&lt;/li&gt;&lt;li&gt;Motorcycle&lt;/li&gt;&lt;/ol&gt;&lt;li&gt;Parking Fee&lt;/li&gt;&lt;ol&gt;&lt;li&gt;Cash&lt;/li&gt;&lt;li&gt;Credit/Cards&lt;/li&gt;&lt;/ol&gt;&lt;li&gt;Monitoring System&lt;/li&gt;&lt;ol&gt;&lt;li&gt;How many entering and exiting.&lt;/li&gt;&lt;li&gt;Observer Design patterns - Logger&lt;/li&gt;&lt;/ol&gt;&lt;li&gt;Tariff Calculator&lt;/li&gt;&lt;/ol&gt;&lt;/div&gt;" style="rounded=0;whiteSpace=wrap;html=1;labelBackgroundColor=#FFFFFF;labelBorderColor=none;fontFamily=Verdana;fontColor=#000000;" parent="1" vertex="1">
          <mxGeometry x="60" y="530" width="450" height="300" as="geometry" />
        </mxCell>
        <mxCell id="xy7MtwKxT0VkMzhvmd6g-6" value="&lt;br&gt;&lt;ol&gt;&lt;li&gt;Creational&amp;nbsp;&lt;/li&gt;&lt;li&gt;Top-down design - not&amp;nbsp;&lt;/li&gt;&lt;li&gt;&lt;b&gt;Bottom Design - recommended&lt;/b&gt;&lt;/li&gt;&lt;/ol&gt;" style="whiteSpace=wrap;html=1;labelBackgroundColor=#FFFFFF;labelBorderColor=none;fontFamily=Verdana;fontColor=#000000;align=left;" parent="1" vertex="1">
          <mxGeometry x="540" y="530" width="270" height="110" as="geometry" />
        </mxCell>
        <mxCell id="xy7MtwKxT0VkMzhvmd6g-7" value="&lt;div style=&quot;text-align: center;&quot;&gt;&lt;b&gt;Actors&lt;/b&gt;&lt;/div&gt;&lt;ol&gt;&lt;li&gt;Parking Lot System&lt;/li&gt;&lt;li&gt;Entry / Exit terminal&lt;/li&gt;&lt;ol&gt;&lt;li&gt;Printers&lt;/li&gt;&lt;li&gt;Payment Processor&lt;/li&gt;&lt;/ol&gt;&lt;li&gt;Parking Spot&lt;/li&gt;&lt;li&gt;Ticket&lt;/li&gt;&lt;li&gt;Database&lt;/li&gt;&lt;li&gt;Monitoring Systems&lt;/li&gt;&lt;/ol&gt;" style="rounded=0;whiteSpace=wrap;html=1;labelBackgroundColor=#FFFFFF;labelBorderColor=none;fontFamily=Verdana;fontColor=#000000;align=left;" parent="1" vertex="1">
          <mxGeometry x="540" y="670" width="260" height="160" as="geometry" />
        </mxCell>
        <mxCell id="xy7MtwKxT0VkMzhvmd6g-11" value="Parking Spot" style="swimlane;fontStyle=0;childLayout=stackLayout;horizontal=1;startSize=26;fillColor=none;horizontalStack=0;resizeParent=1;resizeParentMax=0;resizeLast=0;collapsible=1;marginBottom=0;labelBackgroundColor=#FFFFFF;labelBorderColor=none;fontFamily=Verdana;fontColor=#000000;" parent="1" vertex="1">
          <mxGeometry x="370" y="860" width="140" height="78" as="geometry" />
        </mxCell>
        <mxCell id="xy7MtwKxT0VkMzhvmd6g-12" value="+ id: Number" style="text;strokeColor=none;fillColor=none;align=left;verticalAlign=top;spacingLeft=4;spacingRight=4;overflow=hidden;rotatable=0;points=[[0,0.5],[1,0.5]];portConstraint=eastwest;labelBackgroundColor=#FFFFFF;labelBorderColor=none;fontFamily=Verdana;fontColor=#000000;" parent="xy7MtwKxT0VkMzhvmd6g-11" vertex="1">
          <mxGeometry y="26" width="140" height="26" as="geometry" />
        </mxCell>
        <mxCell id="xy7MtwKxT0VkMzhvmd6g-13" value="+ reserve: Boolean" style="text;strokeColor=none;fillColor=none;align=left;verticalAlign=top;spacingLeft=4;spacingRight=4;overflow=hidden;rotatable=0;points=[[0,0.5],[1,0.5]];portConstraint=eastwest;labelBackgroundColor=#FFFFFF;labelBorderColor=none;fontFamily=Verdana;fontColor=#000000;" parent="xy7MtwKxT0VkMzhvmd6g-11" vertex="1">
          <mxGeometry y="52" width="140" height="26" as="geometry" />
        </mxCell>
        <mxCell id="xy7MtwKxT0VkMzhvmd6g-25" style="edgeStyle=orthogonalEdgeStyle;rounded=0;orthogonalLoop=1;jettySize=auto;html=1;exitX=0.5;exitY=0;exitDx=0;exitDy=0;entryX=0.471;entryY=0.962;entryDx=0;entryDy=0;entryPerimeter=0;fontFamily=Verdana;fontColor=#000000;labelBackgroundColor=#FFFFFF;" parent="1" source="xy7MtwKxT0VkMzhvmd6g-15" target="xy7MtwKxT0VkMzhvmd6g-13" edge="1">
          <mxGeometry relative="1" as="geometry" />
        </mxCell>
        <mxCell id="xy7MtwKxT0VkMzhvmd6g-15" value="HandiCapped" style="swimlane;fontStyle=0;childLayout=stackLayout;horizontal=1;startSize=26;fillColor=none;horizontalStack=0;resizeParent=1;resizeParentMax=0;resizeLast=0;collapsible=1;marginBottom=0;labelBackgroundColor=#FFFFFF;labelBorderColor=none;fontFamily=Verdana;fontColor=#000000;" parent="1" vertex="1">
          <mxGeometry x="370" y="990" width="140" height="78" as="geometry" />
        </mxCell>
        <mxCell id="xy7MtwKxT0VkMzhvmd6g-16" value="+ field: type" style="text;strokeColor=none;fillColor=none;align=left;verticalAlign=top;spacingLeft=4;spacingRight=4;overflow=hidden;rotatable=0;points=[[0,0.5],[1,0.5]];portConstraint=eastwest;labelBackgroundColor=#FFFFFF;labelBorderColor=none;fontFamily=Verdana;fontColor=#000000;" parent="xy7MtwKxT0VkMzhvmd6g-15" vertex="1">
          <mxGeometry y="26" width="140" height="26" as="geometry" />
        </mxCell>
        <mxCell id="xy7MtwKxT0VkMzhvmd6g-17" value="+ field: type" style="text;strokeColor=none;fillColor=none;align=left;verticalAlign=top;spacingLeft=4;spacingRight=4;overflow=hidden;rotatable=0;points=[[0,0.5],[1,0.5]];portConstraint=eastwest;labelBackgroundColor=#FFFFFF;labelBorderColor=none;fontFamily=Verdana;fontColor=#000000;" parent="xy7MtwKxT0VkMzhvmd6g-15" vertex="1">
          <mxGeometry y="52" width="140" height="26" as="geometry" />
        </mxCell>
        <mxCell id="xy7MtwKxT0VkMzhvmd6g-26" style="edgeStyle=orthogonalEdgeStyle;rounded=0;orthogonalLoop=1;jettySize=auto;html=1;entryX=0.471;entryY=1.038;entryDx=0;entryDy=0;entryPerimeter=0;fontFamily=Verdana;fontColor=#000000;labelBackgroundColor=#FFFFFF;" parent="1" source="xy7MtwKxT0VkMzhvmd6g-19" target="xy7MtwKxT0VkMzhvmd6g-13" edge="1">
          <mxGeometry relative="1" as="geometry" />
        </mxCell>
        <mxCell id="xy7MtwKxT0VkMzhvmd6g-19" value="Compact" style="swimlane;fontStyle=0;childLayout=stackLayout;horizontal=1;startSize=26;fillColor=none;horizontalStack=0;resizeParent=1;resizeParentMax=0;resizeLast=0;collapsible=1;marginBottom=0;labelBackgroundColor=#FFFFFF;labelBorderColor=none;fontFamily=Verdana;fontColor=#000000;" parent="1" vertex="1">
          <mxGeometry x="520" y="990" width="140" height="78" as="geometry" />
        </mxCell>
        <mxCell id="xy7MtwKxT0VkMzhvmd6g-20" value="+ field: type" style="text;strokeColor=none;fillColor=none;align=left;verticalAlign=top;spacingLeft=4;spacingRight=4;overflow=hidden;rotatable=0;points=[[0,0.5],[1,0.5]];portConstraint=eastwest;labelBackgroundColor=#FFFFFF;labelBorderColor=none;fontFamily=Verdana;fontColor=#000000;" parent="xy7MtwKxT0VkMzhvmd6g-19" vertex="1">
          <mxGeometry y="26" width="140" height="26" as="geometry" />
        </mxCell>
        <mxCell id="xy7MtwKxT0VkMzhvmd6g-21" value="+ field: type" style="text;strokeColor=none;fillColor=none;align=left;verticalAlign=top;spacingLeft=4;spacingRight=4;overflow=hidden;rotatable=0;points=[[0,0.5],[1,0.5]];portConstraint=eastwest;labelBackgroundColor=#FFFFFF;labelBorderColor=none;fontFamily=Verdana;fontColor=#000000;" parent="xy7MtwKxT0VkMzhvmd6g-19" vertex="1">
          <mxGeometry y="52" width="140" height="26" as="geometry" />
        </mxCell>
        <mxCell id="xy7MtwKxT0VkMzhvmd6g-28" style="edgeStyle=orthogonalEdgeStyle;rounded=0;orthogonalLoop=1;jettySize=auto;html=1;fontFamily=Verdana;fontColor=#000000;labelBackgroundColor=#FFFFFF;" parent="1" edge="1">
          <mxGeometry relative="1" as="geometry">
            <mxPoint x="437" y="937" as="targetPoint" />
            <mxPoint x="747" y="983" as="sourcePoint" />
            <Array as="points">
              <mxPoint x="747" y="957" />
              <mxPoint x="437" y="957" />
            </Array>
          </mxGeometry>
        </mxCell>
        <mxCell id="xy7MtwKxT0VkMzhvmd6g-22" value="MotorCycleParking" style="swimlane;fontStyle=0;childLayout=stackLayout;horizontal=1;startSize=30;fillColor=none;horizontalStack=0;resizeParent=1;resizeParentMax=0;resizeLast=0;collapsible=1;marginBottom=0;labelBackgroundColor=#FFFFFF;labelBorderColor=none;fontFamily=Verdana;fontColor=#000000;" parent="1" vertex="1">
          <mxGeometry x="680" y="986" width="140" height="82" as="geometry" />
        </mxCell>
        <mxCell id="xy7MtwKxT0VkMzhvmd6g-23" value="+ field: type" style="text;strokeColor=none;fillColor=none;align=left;verticalAlign=top;spacingLeft=4;spacingRight=4;overflow=hidden;rotatable=0;points=[[0,0.5],[1,0.5]];portConstraint=eastwest;labelBackgroundColor=#FFFFFF;labelBorderColor=none;fontFamily=Verdana;fontColor=#000000;" parent="xy7MtwKxT0VkMzhvmd6g-22" vertex="1">
          <mxGeometry y="30" width="140" height="26" as="geometry" />
        </mxCell>
        <mxCell id="xy7MtwKxT0VkMzhvmd6g-24" value="+ field: type" style="text;strokeColor=none;fillColor=none;align=left;verticalAlign=top;spacingLeft=4;spacingRight=4;overflow=hidden;rotatable=0;points=[[0,0.5],[1,0.5]];portConstraint=eastwest;labelBackgroundColor=#FFFFFF;labelBorderColor=none;fontFamily=Verdana;fontColor=#000000;" parent="xy7MtwKxT0VkMzhvmd6g-22" vertex="1">
          <mxGeometry y="56" width="140" height="26" as="geometry" />
        </mxCell>
        <mxCell id="xy7MtwKxT0VkMzhvmd6g-9" value="Enum - Type of Parking Spot&lt;br&gt;&lt;div style=&quot;text-align: left;&quot;&gt;&lt;br&gt;&lt;/div&gt;&lt;div style=&quot;text-align: left;&quot;&gt;enum ParkingSpot{&lt;/div&gt;&lt;blockquote style=&quot;margin: 0 0 0 40px; border: none; padding: 0px;&quot;&gt;&lt;div style=&quot;text-align: left;&quot;&gt;Handicapped,&lt;/div&gt;&lt;div style=&quot;text-align: left;&quot;&gt;Compact,&lt;/div&gt;&lt;div style=&quot;text-align: left;&quot;&gt;large,&lt;/div&gt;&lt;div style=&quot;text-align: left;&quot;&gt;motorcycle&lt;/div&gt;&lt;/blockquote&gt;&lt;div style=&quot;text-align: left;&quot;&gt;&lt;span style=&quot;text-align: center;&quot;&gt;}&lt;/span&gt;&lt;/div&gt;" style="whiteSpace=wrap;html=1;labelBackgroundColor=#FFFFFF;labelBorderColor=none;fontFamily=Verdana;fontColor=#000000;" parent="1" vertex="1">
          <mxGeometry x="60" y="860" width="200" height="220" as="geometry" />
        </mxCell>
      </root>
    </mxGraphModel>
  </diagram>
</mxfile>
